<svg width="89" height="66" viewBox="0 0 89 66" fill="none" xmlns="http://www.w3.org/2000/svg">
<g clip-path="url(#clip0)">
<path fill-rule="evenodd" clip-rule="evenodd" d="M18.9128 0.735543C19.6939 1.62901 19.6028 2.98648 18.7093 3.76755C13.7423 8.10969 7.74161 16.2939 5.99916 26.576C4.27813 36.7317 6.66266 49.1978 18.8722 62.3921C19.6782 63.2631 19.6255 64.6226 18.7545 65.4286C17.8835 66.2346 16.524 66.1819 15.7179 65.3109C2.6767 51.2179 -0.199362 37.432 1.76202 25.858C3.70199 14.4104 10.3267 5.38741 15.8808 0.532016C16.7743 -0.249046 18.1318 -0.157924 18.9128 0.735543Z" fill="#282828"/>
<path fill-rule="evenodd" clip-rule="evenodd" d="M70.0872 0.734567C69.3061 1.62803 69.3973 2.98551 70.2907 3.76657C75.2578 8.10871 81.2584 16.293 83.0009 26.575C84.7219 36.7307 82.3374 49.1969 70.1278 62.3911C69.3218 63.2621 69.3745 64.6216 70.2455 65.4276C71.1166 66.2337 72.4761 66.181 73.2821 65.3099C86.3234 51.2169 89.1994 37.431 87.238 25.857C85.2981 14.4094 78.6733 5.38643 73.1192 0.531039C72.2257 -0.250023 70.8683 -0.1589 70.0872 0.734567Z" fill="#282828"/>
<path fill-rule="evenodd" clip-rule="evenodd" d="M27.0993 10.9172C27.8804 11.8107 27.7893 13.1681 26.8958 13.9492C23.665 16.7736 19.7477 22.1184 18.6129 28.8147C17.4995 35.3846 19.016 43.5187 27.0587 52.2101C27.8647 53.0811 27.812 54.4406 26.941 55.2466C26.07 56.0526 24.7105 55.9999 23.9045 55.1289C15.03 45.5388 13.022 36.0849 14.3757 28.0966C15.708 20.2348 20.2494 14.0513 24.0673 10.7137C24.9608 9.93259 26.3183 10.0237 27.0993 10.9172Z" fill="#282828"/>
<path fill-rule="evenodd" clip-rule="evenodd" d="M61.9007 10.9172C61.1197 11.8107 61.2107 13.1681 62.1041 13.9492C65.335 16.7736 69.2524 22.1184 70.3872 28.8147C71.5005 35.3846 69.984 43.5187 61.9414 52.2101C61.1353 53.0811 61.188 54.4406 62.0591 55.2466C62.9301 56.0526 64.2895 55.9999 65.0955 55.1289C73.97 45.5388 75.9779 36.0849 74.6242 28.0966C73.2919 20.2348 68.7507 14.0513 64.9327 10.7137C64.0393 9.93259 62.6818 10.0237 61.9007 10.9172Z" fill="#282828"/>
<path d="M36.2365 41.4657C40.0416 41.4657 42.6695 39.0162 42.6695 35.4489C42.6695 32.1075 40.3032 29.6936 37.0213 29.6936C35.3209 29.6936 33.9177 30.3833 33.2043 31.4891H33.1329L33.5729 26.4711H41.6588V23.9621H31.1471L30.2553 33.7365H33.0378C33.668 32.6664 34.8809 32.0242 36.284 32.0242C38.2936 32.0242 39.7086 33.4749 39.7086 35.5321C39.7086 37.5536 38.3055 38.9805 36.2602 38.9805C34.4528 38.9805 33.0616 37.8865 32.8713 36.2931H29.9937C30.1245 39.3372 32.6929 41.4657 36.2365 41.4657Z" fill="#282828"/>
<path d="M60.0066 33.9625V32.1313H52.872V34.4738H57.01L56.9982 34.7592C56.9506 37.1612 55.155 38.8021 52.5628 38.8021C49.4711 38.8021 47.5448 36.3882 47.5448 32.4404C47.5448 28.5759 49.3879 26.2809 52.4796 26.2809C54.5843 26.2809 56.1777 27.4462 56.7603 29.4201H59.8758C59.3169 25.9836 56.3679 23.6768 52.4677 23.6768C47.5091 23.6768 44.4056 27.03 44.4056 32.4761C44.4056 38.0054 47.521 41.4062 52.5271 41.4062C57.2241 41.4062 60.0066 38.6119 60.0066 33.9625Z" fill="#282828"/>
</g>
<defs>
<clipPath id="clip0">
<rect width="89" height="66" fill="white"/>
</clipPath>
</defs>
</svg>
