<svg width="46" height="94" viewBox="0 0 46 94" fill="none" xmlns="http://www.w3.org/2000/svg">
<path d="M9 12C10.6569 12 12 10.6569 12 9C12 7.34315 10.6569 6 9 6C7.34315 6 6 7.34315 6 9C6 10.6569 7.34315 12 9 12Z" fill="#282828"/>
<path d="M9 20C10.6569 20 12 18.6569 12 17C12 15.3431 10.6569 14 9 14C7.34315 14 6 15.3431 6 17C6 18.6569 7.34315 20 9 20Z" fill="#282828"/>
<path d="M17 16C18.6569 16 20 14.6569 20 13C20 11.3431 18.6569 10 17 10C15.3431 10 14 11.3431 14 13C14 14.6569 15.3431 16 17 16Z" fill="#282828"/>
<path d="M22.5 59C31.0604 59 38 52.0604 38 43.5C38 34.9396 31.0604 28 22.5 28C13.9396 28 7 34.9396 7 43.5C7 52.0604 13.9396 59 22.5 59Z" fill="#282828"/>
<path d="M9 1.5H37C41.1421 1.5 44.5 4.85786 44.5 9V78C44.5 82.1421 41.1421 85.5 37 85.5H9C4.85786 85.5 1.5 82.1421 1.5 78V9C1.5 4.85786 4.85786 1.5 9 1.5Z" stroke="#282828" stroke-width="3"/>
<path fill-rule="evenodd" clip-rule="evenodd" d="M22 52H24V94H22V52Z" fill="#282828"/>
</svg>
