<svg width="113" height="60" viewBox="0 0 113 60" fill="none" xmlns="http://www.w3.org/2000/svg">
<g clip-path="url(#clip0)">
<path d="M85 7H17C11.4772 7 7 11.4772 7 17V43C7 48.5228 11.4772 53 17 53H85C90.5229 53 95 48.5228 95 43V17C95 11.4772 90.5229 7 85 7Z" fill="#282828"/>
<path d="M14 1.5H88C94.9036 1.5 100.5 7.09644 100.5 14V46C100.5 52.9036 94.9036 58.5 88 58.5H14C7.09644 58.5 1.5 52.9036 1.5 46V14C1.5 7.09644 7.09644 1.5 14 1.5Z" stroke="#282828" stroke-width="3"/>
<path fill-rule="evenodd" clip-rule="evenodd" d="M105.564 40.261C107.778 39.4267 109.681 37.9299 111.013 35.9747C112.345 34.0195 113.041 31.701 113.008 29.3354C112.974 26.9698 112.211 24.6722 110.824 22.7558C109.436 20.8395 107.492 19.3976 105.255 18.627C105.255 18.627 104.3 40.738 105.564 40.261Z" fill="#282828"/>
</g>
<defs>
<clipPath id="clip0">
<rect width="113" height="60" fill="white"/>
</clipPath>
</defs>
</svg>
