<svg width="96" height="95" viewBox="0 0 96 95" fill="none" xmlns="http://www.w3.org/2000/svg">
<path d="M18 2H78C86.8366 2 94 9.16344 94 18V77C94 85.8366 86.8366 93 78 93H18C9.16344 93 2 85.8366 2 77V18C2 9.16344 9.16344 2 18 2Z" stroke="#282828" stroke-width="4"/>
<path fill-rule="evenodd" clip-rule="evenodd" d="M40.9134 56.5064H43.3134L36.5594 38.1904H34.2994L27.5454 56.5064H29.9454L31.7874 51.2634H39.0744L40.9134 56.5064ZM35.3874 40.9674H35.4674L38.4004 49.3204H32.4584L35.3874 40.9674ZM48.7724 56.5064H50.9814V38.1904H48.7464L43.8714 41.6904V44.1024L48.7214 40.6114H48.7724V56.5064ZM61.9244 56.8064C65.7454 56.8064 68.4494 54.2294 68.4494 50.5474C68.4831 49.7396 68.3502 48.9335 68.0587 48.1793C67.7673 47.4252 67.3237 46.7391 66.7556 46.1638C66.1875 45.5885 65.507 45.1364 64.7565 44.8356C64.006 44.5348 63.2016 44.3918 62.3934 44.4154C61.6205 44.3757 60.8487 44.5142 60.1378 44.8202C59.4269 45.1263 58.7958 45.5917 58.2934 46.1804H58.2424L58.8014 40.2134H67.4084V38.1904H56.9224L55.9224 48.4484H58.0684C58.4831 47.7911 59.0637 47.2548 59.7518 46.8935C60.4398 46.5322 61.2109 46.3587 61.9874 46.3904C63.0928 46.4117 64.1454 46.867 64.9178 47.658C65.6902 48.449 66.1204 49.5121 66.1154 50.6177C66.1104 51.7232 65.6706 52.7824 64.8911 53.5664C64.1116 54.3503 63.0549 54.7961 61.9494 54.8074C60.9788 54.8809 60.017 54.5799 59.2615 53.9661C58.506 53.3523 58.0143 52.4725 57.8874 51.5074H55.6404C55.8304 54.6274 58.4204 56.8104 61.9244 56.8104V56.8064Z" fill="#282828"/>
</svg>
