<svg width="93" height="96" viewBox="0 0 93 96" fill="none" xmlns="http://www.w3.org/2000/svg">
<path d="M66.594 87.188C70.7881 87.188 74.188 83.7881 74.188 79.594C74.188 75.4 70.7881 72 66.594 72C62.4 72 59 75.4 59 79.594C59 83.7881 62.4 87.188 66.594 87.188Z" fill="#282828"/>
<path d="M66.063 24.1885C69.998 24.1885 73.188 20.9985 73.188 17.0635C73.188 13.1284 69.998 9.93848 66.063 9.93848C62.128 9.93848 58.938 13.1284 58.938 17.0635C58.938 20.9985 62.128 24.1885 66.063 24.1885Z" stroke="#282828"/>
<path d="M24 2H69C81.1503 2 91 11.8497 91 24V72C91 84.1503 81.1503 94 69 94H24C11.8497 94 2 84.1503 2 72V24C2 11.8497 11.8497 2 24 2Z" stroke="#282828" stroke-width="4"/>
<path d="M26 45.3443C36.1311 45.3443 44.344 37.1314 44.344 27.0002C44.344 16.8691 36.1311 8.65625 26 8.65625C15.8689 8.65625 7.65601 16.8691 7.65601 27.0002C7.65601 37.1314 15.8689 45.3443 26 45.3443Z" stroke="#282828" stroke-width="2"/>
<path d="M26.5 41C33.9558 41 40 34.9558 40 27.5C40 20.0442 33.9558 14 26.5 14C19.0442 14 13 20.0442 13 27.5C13 34.9558 19.0442 41 26.5 41Z" fill="#282828"/>
<path d="M26 86.3443C36.1311 86.3443 44.344 78.1314 44.344 68.0003C44.344 57.8691 36.1311 49.6562 26 49.6562C15.8689 49.6562 7.65601 57.8691 7.65601 68.0003C7.65601 78.1314 15.8689 86.3443 26 86.3443Z" stroke="#282828" stroke-width="2"/>
<path d="M26.5 82C33.9558 82 40 75.9558 40 68.5C40 61.0442 33.9558 55 26.5 55C19.0442 55 13 61.0442 13 68.5C13 75.9558 19.0442 82 26.5 82Z" fill="#282828"/>
<path d="M66 65.3443C76.1311 65.3443 84.344 57.1314 84.344 47.0002C84.344 36.8691 76.1311 28.6562 66 28.6562C55.8689 28.6562 47.656 36.8691 47.656 47.0002C47.656 57.1314 55.8689 65.3443 66 65.3443Z" stroke="#282828" stroke-width="2"/>
<path d="M66.5 61C73.9558 61 80 54.9558 80 47.5C80 40.0442 73.9558 34 66.5 34C59.0442 34 53 40.0442 53 47.5C53 54.9558 59.0442 61 66.5 61Z" fill="#282828"/>
</svg>
